<?xml version="1.0" standalone="no"?>
<!DOCTYPE svg PUBLIC "-//W3C//DTD SVG 20010904//EN"
 "http://www.w3.org/TR/2001/REC-SVG-20010904/DTD/svg10.dtd">
<svg version="1.0" xmlns="http://www.w3.org/2000/svg"
 width="100.000000pt" height="100.000000pt" viewBox="0 0 100.000000 100.000000"
 preserveAspectRatio="xMidYMid meet">
<metadata>
Created by potrace 1.11, written by Peter Selinger 2001-2013
</metadata>
<g transform="translate(0.000000,100.000000) scale(0.100000,-0.100000)"
fill="#000000" stroke="none">
<path d="M503 891 c-100 -72 -111 -146 -40 -253 43 -65 56 -62 50 10 -5 63 8
112 31 112 33 0 40 -46 21 -141 -4 -23 -3 -39 4 -43 6 -4 11 1 11 11 0 20 47
99 86 146 34 41 32 83 -6 105 -17 9 -33 25 -36 34 -17 54 -63 61 -121 19z"/>
<path d="M92 774 c-5 -8 -20 -21 -33 -28 -37 -18 -32 -54 14 -83 l37 -23 12
27 c15 34 26 43 56 43 26 0 28 -8 5 -25 -10 -7 -13 -17 -8 -25 6 -10 13 -7 30
14 15 18 27 25 39 20 16 -6 16 -8 0 -25 -9 -10 -13 -23 -9 -29 4 -6 13 -2 25
12 18 23 19 23 51 4 45 -26 66 -49 124 -135 52 -78 77 -93 99 -58 9 13 6 27
-13 62 -29 54 -80 102 -149 140 -40 22 -50 32 -49 51 3 30 -17 36 -21 6 -5
-33 -26 -21 -30 16 -2 21 -7 29 -17 26 -10 -4 -11 -12 -5 -29 8 -22 7 -23 -13
-16 -12 5 -23 18 -25 30 -2 11 -10 21 -18 21 -10 0 -13 -7 -8 -25 6 -24 4 -25
-22 -21 -32 6 -44 21 -37 47 7 24 -22 26 -35 3z"/>
<path d="M740 729 c-62 -25 -124 -97 -145 -169 -7 -21 -2 -19 34 18 22 23 46
42 51 42 6 0 15 -11 20 -25 8 -22 13 -24 31 -15 15 9 24 8 35 -1 25 -21 15
-38 -28 -49 -76 -20 -106 -31 -116 -43 -8 -9 10 -12 76 -14 48 -1 101 -2 117
-4 86 -6 115 11 125 73 5 24 14 57 21 75 12 30 11 34 -10 57 -23 24 -45 27
-102 13 -4 -1 -18 10 -32 26 -28 29 -38 31 -77 16z"/>
<path d="M190 576 c-37 -19 -100 -82 -100 -100 0 -8 9 -20 20 -26 15 -8 20
-21 20 -49 0 -27 5 -41 17 -45 23 -9 78 11 146 52 52 32 59 34 73 20 15 -14
11 -18 -42 -37 -90 -33 -106 -43 -121 -79 -14 -35 -6 -65 21 -75 10 -4 15 -21
14 -55 0 -76 36 -117 81 -93 11 6 37 11 59 11 63 0 83 34 97 165 3 37 11 79
16 93 8 21 8 23 -5 13 -8 -7 -22 -34 -31 -61 -10 -30 -23 -50 -35 -53 -23 -6
-30 0 -30 27 0 11 -9 29 -20 41 -24 26 -19 47 16 66 30 16 49 45 34 54 -5 3
-31 6 -57 7 -61 1 -85 13 -81 41 4 29 38 33 95 12 24 -10 46 -15 48 -13 11 11
-50 62 -94 79 -60 22 -106 24 -141 5z"/>
<path d="M738 465 c-2 -1 -27 -5 -57 -8 -61 -7 -85 -21 -51 -32 12 -4 24 -4
27 -1 3 3 14 1 24 -5 14 -7 17 -17 12 -39 -3 -19 -1 -30 5 -30 22 0 32 -36 16
-58 -13 -19 -19 -20 -37 -11 -12 7 -26 19 -31 27 -8 13 -12 11 -30 -11 -20
-24 -24 -26 -41 -13 -11 8 -20 27 -21 42 -1 16 -3 35 -3 42 -1 6 -7 12 -14 12
-19 0 -37 -58 -37 -119 0 -124 68 -179 153 -123 26 17 54 26 92 28 102 5 129
38 128 156 -1 71 -4 84 -25 104 -19 19 -100 48 -110 39z"/>
</g>
</svg>
